# xmcd
#
# Track frame offsets: 
#        150
#        12445
#        22803
#        33714
#        42626
#        54585
#        66142
#        77254
#        89307
#        101620
#        113440
#        126873
#        138623
#        147884
#        159033
#        170507
#        179255
#        190026
#        199409
#        211058
#        223633
#        233073
#        244506
#        255794
#
# Disc length: 3545 seconds
#
# Revision: 0
# Processed by: cddbd v1.5.2PL0 Copyright (c) Steve Scherf et al.
# Submitted via: ExactAudioCopy v0.99pb4
#
DISCID=3c0dd718
DTITLE=Various Artist - Best Of Kayden and Merben Records
DYEAR=1965
DGENRE=Soul
TTITLE0=John Bowie - You're Gonna Miss A Good Thing, Baby
TTITLE1=John Bowie - At The End Of The Day
TTITLE2=John Bowie - Help Me Pretty Baby
TTITLE3=Bill Horton - I Wanna Know
TTITLE4=Laverett Sisters - Stop, Think It Over
TTITLE5=Laverett Sisters - A Place For Me
TTITLE6=Vivian Carol - Oh Yeah, Yeah, Yeah
TTITLE7=Jimmy Roma - Paint It Black
TTITLE8=Cody Michaels - Seven Days Fifty Two Weeks
TTITLE9=Cody Michaels - Open The Door Richard
TTITLE10=John Bowie - You're Gonna Miss A Good Thing #2
TTITLE11=John Bowie - Help Me Pretty Baby #2
TTITLE12=Matt Sound - Ask Any Girl
TTITLE13=Matt Sound - What Am I Gonna Do
TTITLE14=Matt Sound - She Loves Me For Myself
TTITLE15=Sharon Marshall - Where Did You Leave Your Heart
TTITLE16=Natural Facts - Shake Me Wake Me
TTITLE17=J.D. Rogues - Why Did God Make Girls
TTITLE18=Bats - How Could You Have Known
TTITLE19=Bram Rigg Set - I Can Only Give You Everything
TTITLE20=Bram Rigg Set - Take The Time Be Yourself
TTITLE21=Shags - Breathe In My Ear
TTITLE22=Shags - Tell Me
TTITLE23=Shags - As Long As I Have You
EXTD=
EXTT0=
EXTT1=
EXTT2=
EXTT3=
EXTT4=
EXTT5=
EXTT6=
EXTT7=
EXTT8=
EXTT9=
EXTT10=
EXTT11=
EXTT12=
EXTT13=
EXTT14=
EXTT15=
EXTT16=
EXTT17=
EXTT18=
EXTT19=
EXTT20=
EXTT21=
EXTT22=
EXTT23=
PLAYORDER=
